<?xml version="1.0" encoding="utf-8"?>
<!-- Generator: Adobe Illustrator 16.0.4, SVG Export Plug-In . SVG Version: 6.00 Build 0)  -->
<!DOCTYPE svg PUBLIC "-//W3C//DTD SVG 1.1//EN" "http://www.w3.org/Graphics/SVG/1.1/DTD/svg11.dtd">
<svg version="1.1" id="Layer_1" xmlns="http://www.w3.org/2000/svg" xmlns:xlink="http://www.w3.org/1999/xlink" x="0px" y="0px"
	 width="800px" height="600px" viewBox="0 0 800 600" enable-background="new 0 0 800 600" xml:space="preserve">
<path fill="#FFFFFF" d="M431.875,481.875c0-5.625,0-9.375-1.875-15c-1.875-3.75-1.875-9.375-3.75-13.125s-3.75-7.5-5.625-13.125
	c-3.75-3.75-5.625-7.5-7.5-11.25s-5.625-5.625-9.375-11.25c-3.75-3.75-7.5-7.5-9.375-9.375s-5.625-5.625-11.25-9.375
	s-9.375-7.5-11.25-7.5s-5.625-3.75-11.25-7.5s-9.375-7.5-11.25-7.5c-3.75,0-9.375,0-18.75,0c-13.125,0-26.25,0-37.5,1.875
	c-13.125,1.875-26.25,3.75-39.375,9.375c-13.125,3.75-24.375,9.375-35.625,16.875s-18.75,15-24.375,26.25
	s-9.375,24.375-9.375,39.375c0,16.875,3.75,31.875,13.125,43.125c9.375,13.125,20.625,22.5,33.75,30s28.125,13.125,43.125,16.875
	s30,5.625,45,5.625s28.125-1.875,41.25-3.75c13.125-3.75,24.375-7.5,35.625-15c11.25-5.625,20.625-15,26.25-26.25
	S431.875,496.875,431.875,481.875z M388.75,170.625c0-15-1.875-30-5.625-46.875s-9.375-31.875-16.875-46.875s-16.875-28.125-30-37.5
	s-28.125-15-43.125-15c-22.5,0-39.375,7.5-52.5,24.375s-18.75,35.625-18.75,60c0,11.25,1.875,22.5,3.75,35.625
	s7.5,24.375,13.125,37.5s13.125,24.375,20.625,33.75S276.25,234.375,287.5,240s22.5,9.375,35.625,9.375
	c22.5,0,39.375-7.5,50.625-22.5C383.125,213.75,388.75,195,388.75,170.625z M341.875,0h157.5l-48.75,28.125h-48.75
	c16.875,11.25,30,26.25,39.375,45s15,39.375,15,60c0,16.875-1.875,33.75-7.5,46.875s-13.125,24.375-20.625,33.75
	c-7.5,7.5-15,16.875-24.375,22.5c-7.5,7.5-15,15-20.625,22.5s-7.5,15-7.5,24.375c0,5.625,1.875,13.125,5.625,18.75
	s9.375,11.25,15,16.875s13.125,11.25,20.625,16.875s15,13.125,22.5,20.625s15,15,20.625,24.375s11.25,18.75,15,30
	s5.625,24.375,5.625,37.5c0,39.375-16.875,73.125-50.625,101.25c-35.625,31.875-86.25,46.875-151.875,46.875
	c-15,0-28.125-1.875-43.125-3.75s-30-5.625-43.125-11.25c-15-5.625-28.125-13.125-39.375-20.625s-20.625-18.75-28.125-31.875
	C118.75,517.5,115,504.375,115,487.5c0-15,3.75-30,13.125-48.75c7.5-15,18.75-28.125,33.75-39.375s33.75-20.625,52.5-26.25
	s37.5-9.375,56.25-13.125c16.875-1.875,35.625-3.75,54.375-5.625c-15-20.625-22.5-37.5-22.5-54.375c0-3.75,0-5.625,0-9.375
	c0-1.875,1.875-5.625,1.875-7.5s1.875-3.75,3.75-7.5S310,270,310,268.125C300.625,270,291.25,270,285.625,270
	C250,270,220,258.75,193.75,234.375s-37.5-52.5-37.5-88.125c0-33.75,11.25-63.75,33.75-90C212.5,31.875,240.625,15,274.375,7.5
	C296.875,1.875,319.375,0,341.875,0z M715,91.875v46.875h-91.875v91.875H576.25V138.75h-91.875V91.875h91.875V0h46.875v91.875H715z"
	/>
</svg>
